<svg xmlns="http://www.w3.org/2000/svg" width="54.446" height="58.34" viewBox="0 0 54.446 58.34">
  <g id="back" transform="translate(-1204.77 -339.05)">
    <g id="Rectangle_94" data-name="Rectangle 94" transform="translate(1245.216 370.39)" fill="none" stroke="#ff671f" stroke-width="2">
      <rect width="14" height="27" stroke="none"/>
      <rect x="1" y="1" width="12" height="25" fill="none"/>
    </g>
    <rect id="Rectangle_95" data-name="Rectangle 95" width="17" height="12" transform="translate(1238.216 378.39)" fill="none"/>
    <path id="Path_29" data-name="Path 29" d="M4878.259,1279.5h11.071" transform="translate(-3643 -895.278)" fill="none" stroke="#ff761f" stroke-width="2"/>
    <path id="Path_30" data-name="Path 30" d="M4885.717,1274l10.244,5.33-9.378,5.995,3.626-5.995Z" transform="translate(-3644.708 -895.572)" fill="#ff671f" stroke="#ff671f" stroke-linejoin="round" stroke-width="1"/>
  </g>
  <g id="key" transform="translate(-1239.406 -313)">
    <g id="Group_3078" data-name="Group 3078" transform="matrix(-0.809, -0.588, 0.588, -0.809, 1247.245, 341.728)">
      <path id="Path_27" data-name="Path 27" d="M0,0H7.028V13.485" transform="translate(0 0)" fill="none" stroke="#000" stroke-width="2"/>
      <path id="Path_28" data-name="Path 28" d="M0,0H7.217" transform="translate(0 5.128)" fill="none" stroke="#000" stroke-width="2"/>
    </g>
    <g id="Ellipse_14" data-name="Ellipse 14" transform="translate(1245.756 313)" fill="none" stroke="#000" stroke-width="2">
      <circle cx="8.048" cy="8.048" r="8.048" stroke="none"/>
      <circle cx="8.048" cy="8.048" r="7.048" fill="none"/>
    </g>
  </g>
  <g id="back-2" data-name="back" transform="translate(-1235.259 -339.05)">
    <g id="Rectangle_94-2" data-name="Rectangle 94" transform="translate(1245.216 370.39)" fill="none" stroke="#000" stroke-width="2">
      <rect width="14" height="27" stroke="none"/>
      <rect x="1" y="1" width="12" height="25" fill="none"/>
    </g>
    <rect id="Rectangle_95-2" data-name="Rectangle 95" width="17" height="12" transform="translate(1238.216 378.39)" fill="none"/>
    <path id="Path_29-2" data-name="Path 29" d="M4878.259,1279.5h11.071" transform="translate(-3643 -895.278)" fill="none" stroke="#000" stroke-width="2"/>
    <path id="Path_30-2" data-name="Path 30" d="M4885.717,1274l10.244,5.33-9.378,5.995,3.626-5.995Z" transform="translate(-3644.708 -895.572)" stroke="#000" stroke-linejoin="round" stroke-width="1"/>
  </g>
  <g id="key-2" data-name="key" transform="translate(-1209.406 -313)">
    <g id="Group_3078-2" data-name="Group 3078" transform="matrix(-0.809, -0.588, 0.588, -0.809, 1247.245, 341.728)">
      <path id="Path_27-2" data-name="Path 27" d="M0,0H7.028V13.485" transform="translate(0 0)" fill="none" stroke="#ff671f" stroke-width="2"/>
      <path id="Path_28-2" data-name="Path 28" d="M0,0H7.217" transform="translate(0 5.128)" fill="none" stroke="#ff671f" stroke-width="2"/>
    </g>
    <g id="Ellipse_14-2" data-name="Ellipse 14" transform="translate(1245.756 313)" fill="none" stroke="#ff671f" stroke-width="2">
      <circle cx="8.048" cy="8.048" r="8.048" stroke="none"/>
      <circle cx="8.048" cy="8.048" r="7.048" fill="none"/>
    </g>
  </g>
</svg>
