<svg xmlns="http://www.w3.org/2000/svg" width="360.159" height="26" viewBox="0 0 360.159 26">
  <g id="logo" transform="translate(-46 -18.774)">
    <g id="logo-2" data-name="logo" transform="translate(-92 -15)">
      <g id="Group_3072" data-name="Group 3072" transform="translate(171.844 33.774)">
        <g id="logo-3" data-name="logo">
          <path id="Path_6" data-name="Path 6" d="M20.471,7.321l-6.5,21.322L7.389,7.321H3.4L1.448,32.476H3.834L5.657,9.2l7.236,23.274h2.269L22.275,9.2l1.949,23.274H26.8L24.459,7.321H20.471M319.263,18.232c-4.635-1.734-5.125-2.947-5.125-4.65,0-2.947,2.022-4.614,4.949-4.614,3.212,0,5.161,1.944,6.069,4.723l1.983-.594a7.936,7.936,0,0,0-8.051-6.005c-4.669,0-7.242,2.781-7.242,6.49,0,8.291,13.628,5.657,13.628,12.388a4.658,4.658,0,0,1-5.025,4.992c-3.975,0-6.2-1.662-7.18-5.477l-2.117.659c1.389,4.578,4.136,6.695,8.951,6.695,4.081,0,7.663-2.362,7.663-6.629,0-3.606-1.426-5.34-8.5-7.978M275.022,9.3h7.434V32.512h2.3V9.3h7.434V7.422H275.022V9.3M261.815,22.456,265.95,9.3l4.237,13.158h-8.372ZM264.25,7.422l-8.027,25.091h2.428l2.573-8.179h9.481l2.537,8.179h2.433L267.756,7.422Zm32.932,13.011h8.65V18.558h-8.65V9.3H309.2V7.422H294.887v25.09h14.978V30.637H297.183v-10.2M250.129,32.514h2.3V7.423h-2.3ZM237.57,30.962c-5.21,0-7.4-4.86-7.4-11.007s2.19-10.987,7.161-10.987c3.021,0,5.037,2.146,6.115,5.815l2.119-.457c-1.075-4.078-3.545-7.235-8.024-7.235-6.085,0-9.665,5.126-9.665,12.863s3.58,12.884,9.665,12.884c5.244,0,7.571-3.126,8.512-7.6l-2.157-.383c-.835,3.261-2.289,6.111-6.325,6.111m-87.3-8.506L154.4,9.3l4.24,13.158ZM152.7,7.422l-8.028,25.091H147.1l2.574-8.179h9.481l2.535,8.179h2.434L156.209,7.422h-3.5Zm21.617,10.811c-4.637-1.734-5.126-2.947-5.126-4.65,0-2.947,2.023-4.614,4.953-4.614,3.21,0,5.164,1.944,6.067,4.723L182.2,13.1a7.931,7.931,0,0,0-8.05-6.005c-4.671,0-7.244,2.781-7.244,6.49,0,8.291,13.624,5.657,13.624,12.388a4.656,4.656,0,0,1-5.022,4.992c-3.975,0-6.21-1.662-7.18-5.478l-2.117.66c1.386,4.578,4.136,6.695,8.949,6.695,4.078,0,7.663-2.362,7.663-6.629,0-3.606-1.426-5.34-8.5-7.978m19.24,0c-4.641-1.734-5.129-2.947-5.129-4.65,0-2.947,2.028-4.614,4.954-4.614,3.206,0,5.163,1.944,6.066,4.723l1.98-.594a7.932,7.932,0,0,0-8.046-6.005c-4.675,0-7.249,2.781-7.249,6.49,0,8.291,13.625,5.657,13.625,12.388a4.653,4.653,0,0,1-5.016,4.992c-3.976,0-6.208-1.662-7.182-5.478l-2.12.66c1.39,4.578,4.14,6.695,8.953,6.695,4.079,0,7.663-2.362,7.663-6.629,0-3.606-1.422-5.34-8.5-7.978m21.8,12.73c-4.626,0-7.618-3.955-7.618-11s2.992-11,7.618-11,7.615,3.96,7.615,11-2.993,11-7.615,11m0-23.872c-6.3,0-9.912,5.489-9.912,12.875s3.616,12.872,9.912,12.872,9.91-5.481,9.91-12.872S221.653,7.09,215.356,7.09" transform="translate(-1.448 -6.985)" fill-rule="evenodd"/>
          <path id="Path_8" data-name="Path 8" d="M66.063,7.271H57.828l-3.35,12.141L51.129,7.271H43.041L40.83,32.512h6.21l1.105-14.173,4.792,14.173h3.082L60.81,18.339l1.106,14.173h6.357L66.063,7.271m78.9,7.755c0,2.166-1.741,2.423-3.2,2.423h-2.439V12.643h2.691a3.782,3.782,0,0,1,1.9.327,2.387,2.387,0,0,1,1.043,2.056m6.932-.182a7.233,7.233,0,0,0-2.661-6.028,9.014,9.014,0,0,0-5.6-1.545H132.586V32.512h6.741V22.86h2.091l3.165,9.653h7.41l-3.927-11.018c2.565-1.36,3.828-3.348,3.828-6.65m-68.21,5.148c0,2.43-.242,7.1-3.531,7.1s-3.531-4.674-3.531-7.1c0-2.465.344-7.4,3.531-7.4s3.531,4.931,3.531,7.4m7.676-.034c0-7.548-4.062-13.067-11.207-13.067S68.947,12.411,68.947,19.959c0,7.178,4.091,12.933,11.206,12.933S91.36,27.136,91.36,19.959m38.592,12.555h-16.3V7.271h16.3v5.8h-9.777v3.706h7.909v5.61h-7.909v4.087h9.777v6.037M98.3,23.9a3.677,3.677,0,0,0,3.957,3.054c.849,0,2.558-.151,2.558-1.544,0-1.544-1.677-1.843-2.658-2.061-4.074-.918-8.915-2.208-8.915-8.2a8.332,8.332,0,0,1,2.783-6.337,9.811,9.811,0,0,1,6.232-1.918c3.758,0,7.394,1.806,8.724,6.191l-5.5,1.949a3.33,3.33,0,0,0-3.508-2.54c-.887,0-2.154.3-2.154,1.622s1.586,1.582,2.408,1.8a20.468,20.468,0,0,1,6.132,2.026,7.277,7.277,0,0,1,3.223,6.44c0,6.076-5.183,8.509-9.672,8.509-4.554,0-8.6-2.213-9.772-7.7L98.3,23.9" transform="translate(-12.012 -6.892)" fill-rule="evenodd"/>
        </g>
      </g>
      <path id="Path_11" data-name="Path 11" d="M461.016,1.34v26h26V15.523H463.381V13.157h23.638V1.34Zm12.638,21.273h2.361V17.1h-2.361Zm-3.941,0h2.366V17.1h-2.366Zm-3.94,0h2.361V17.1h-2.361Z" transform="translate(-323.016 32.434)" fill="#ff671f" fill-rule="evenodd"/>
    </g>
  </g>
</svg>
